<?xml version="1.0" standalone="no"?>
<!DOCTYPE svg PUBLIC "-//W3C//DTD SVG 20010904//EN"
 "http://www.w3.org/TR/2001/REC-SVG-20010904/DTD/svg10.dtd">
<svg version="1.0" xmlns="http://www.w3.org/2000/svg"
 width="1000.000000pt" height="1000.000000pt" viewBox="0 0 1000.000000 1000.000000"
 preserveAspectRatio="xMidYMid meet">
<metadata>
Created by potrace 1.11, written by Peter Selinger 2001-2013
</metadata>
<g transform="translate(0.000000,1000.000000) scale(0.100000,-0.100000)"
fill="#000000" stroke="none">
<path d="M0 5000 l0 -5000 5000 0 5000 0 0 5000 0 5000 -5000 0 -5000 0 0
-5000z m3716 2670 c270 -602 635 -1416 811 -1808 175 -393 323 -714 328 -714
6 1 1531 3506 1568 3605 6 16 44 17 612 17 l605 0 0 -3270 0 -3270 170 0 170
0 -371 -495 c-204 -272 -375 -495 -379 -495 -4 0 -175 223 -379 495 l-371 495
145 0 145 0 0 2813 c0 1546 -4 2805 -9 2797 -5 -8 -388 -869 -851 -1913 l-843
-1897 -266 2 -265 3 -841 1905 -840 1905 -3 -773 -2 -772 -410 0 -410 0 0
1235 0 1235 597 -2 598 -3 491 -1095z"/>
</g>
</svg>
